<svg id="visual" viewBox="0 0 900 600" width="900" height="600" xmlns="http://www.w3.org/2000/svg" xmlns:xlink="http://www.w3.org/1999/xlink" version="1.1"><rect x="0" y="0" width="900" height="600" fill="#E2ECE9"></rect><path d="M0 171L21.5 179.3C43 187.7 86 204.3 128.8 204.2C171.7 204 214.3 187 257.2 180.5C300 174 343 178 385.8 177.8C428.7 177.7 471.3 173.3 514.2 173.7C557 174 600 179 642.8 182.8C685.7 186.7 728.3 189.3 771.2 195.7C814 202 857 212 878.5 217L900 222L900 0L878.5 0C857 0 814 0 771.2 0C728.3 0 685.7 0 642.8 0C600 0 557 0 514.2 0C471.3 0 428.7 0 385.8 0C343 0 300 0 257.2 0C214.3 0 171.7 0 128.8 0C86 0 43 0 21.5 0L0 0Z" fill="#e2ece9"></path><path d="M0 144L21.5 142.3C43 140.7 86 137.3 128.8 144C171.7 150.7 214.3 167.3 257.2 171.5C300 175.7 343 167.3 385.8 163.7C428.7 160 471.3 161 514.2 159.5C557 158 600 154 642.8 150.2C685.7 146.3 728.3 142.7 771.2 141.2C814 139.7 857 140.3 878.5 140.7L900 141L900 0L878.5 0C857 0 814 0 771.2 0C728.3 0 685.7 0 642.8 0C600 0 557 0 514.2 0C471.3 0 428.7 0 385.8 0C343 0 300 0 257.2 0C214.3 0 171.7 0 128.8 0C86 0 43 0 21.5 0L0 0Z" fill="#d7eaef"></path><path d="M0 131L21.5 132.2C43 133.3 86 135.7 128.8 130C171.7 124.3 214.3 110.7 257.2 108.2C300 105.7 343 114.3 385.8 115.2C428.7 116 471.3 109 514.2 104C557 99 600 96 642.8 103.8C685.7 111.7 728.3 130.3 771.2 134C814 137.7 857 126.3 878.5 120.7L900 115L900 0L878.5 0C857 0 814 0 771.2 0C728.3 0 685.7 0 642.8 0C600 0 557 0 514.2 0C471.3 0 428.7 0 385.8 0C343 0 300 0 257.2 0C214.3 0 171.7 0 128.8 0C86 0 43 0 21.5 0L0 0Z" fill="#d7e4f6"></path><path d="M0 107L21.5 101.7C43 96.3 86 85.7 128.8 82.3C171.7 79 214.3 83 257.2 82.2C300 81.3 343 75.7 385.8 74C428.7 72.3 471.3 74.7 514.2 81.7C557 88.7 600 100.3 642.8 105.7C685.7 111 728.3 110 771.2 105.7C814 101.3 857 93.7 878.5 89.8L900 86L900 0L878.5 0C857 0 814 0 771.2 0C728.3 0 685.7 0 642.8 0C600 0 557 0 514.2 0C471.3 0 428.7 0 385.8 0C343 0 300 0 257.2 0C214.3 0 171.7 0 128.8 0C86 0 43 0 21.5 0L0 0Z" fill="#e7dbf3"></path><path d="M0 61L21.5 59.7C43 58.3 86 55.7 128.8 54.2C171.7 52.7 214.3 52.3 257.2 54.8C300 57.3 343 62.7 385.8 62C428.7 61.3 471.3 54.7 514.2 54.2C557 53.7 600 59.3 642.8 56.7C685.7 54 728.3 43 771.2 39.3C814 35.7 857 39.3 878.5 41.2L900 43L900 0L878.5 0C857 0 814 0 771.2 0C728.3 0 685.7 0 642.8 0C600 0 557 0 514.2 0C471.3 0 428.7 0 385.8 0C343 0 300 0 257.2 0C214.3 0 171.7 0 128.8 0C86 0 43 0 21.5 0L0 0Z" fill="#fad2e1"></path></svg>